<svg xmlns="http://www.w3.org/2000/svg" viewBox="0 0 32 32">
  <rect width="32" height="32" rx="8" fill="rgb(32, 178, 170)"/>
  <g
    fill="none"
    stroke="#fff"
    stroke-width="2"
    stroke-linecap="round"
    stroke-linejoin="round"
    transform="translate(4 4)"
  >
    <path d="M14 18V6a2 2 0 0 0-2-2H4a2 2 0 0 0-2 2v11a1 1 0 0 0 1 1h2"/>
    <path d="M15 18H9"/>
    <path d="M19 18h2a1 1 0 0 0 1-1v-3.65a1 1 0 0 0-.22-.624l-3.48-4.35A1 1 0 0 0 17.52 8H14"/>
    <circle cx="17" cy="18" r="2"/>
    <circle cx="7" cy="18" r="2"/>
  </g>
</svg>
